<?xml version="1.0" encoding="UTF-8" standalone="no"?>
<svg width="132px" height="132px" viewBox="0 0 132 132" version="1.1" xmlns="http://www.w3.org/2000/svg" xmlns:xlink="http://www.w3.org/1999/xlink" style="background: #FFFFFF;">
    <!-- Generator: Sketch 43.2 (39069) - http://www.bohemiancoding.com/sketch -->
    <title>slack_icon copy</title>
    <desc>Created with Sketch.</desc>
    <defs></defs>
    <g id="Page-1" stroke="none" stroke-width="1" fill="none" fill-rule="evenodd">
        <g id="slack_icon-copy">
            <rect id="Rectangle-2" fill="#FFFFFF" x="0" y="0" width="132" height="132"></rect>
            <g id="Group-2" transform="translate(5.000000, 13.000000)" fill="#000000">
                <path d="M0.725548921,9.57495 C0.725548921,9.57495 -0.337782014,6.9180125 0.725548921,4.82195 C3.08041223,1.4195125 7.06121079,6.308575 9.91987266,8.21695 C26.3960165,19.216575 43.2315777,30.7740125 61.6807863,37.7521375 C47.7701532,39.362575 37.1043691,33.6790125 26.2652396,28.246575 C17.0322971,23.6191375 5.02626835,18.1048875 0.725548921,9.57495" id="Fill-6"></path>
                <path d="M21.1575209,0.4088 C21.3383266,-0.5112625 22.5197079,0.4088 22.5197079,0.4088 C36.581305,12.53105 50.4234777,24.8716125 66.448046,35.0364875 C61.9937295,36.08255 57.6105065,33.32455 53.5077079,31.3019875 C49.7292187,29.4391125 45.8945568,27.4502375 42.2705424,25.191425 C32.8273914,19.3057375 20.6646935,13.2778625 21.1575209,0.4088" id="Fill-3"></path>
                <path d="M55.8917547,40.8075063 C50.9705029,42.9210687 44.6484453,44.2821312 36.4814669,43.5235062 C28.9187835,42.8213188 17.6710856,37.4982563 12.6445101,33.3389437 C9.87493453,31.0473188 6.18333741,26.6202563 7.53586978,23.1543813 C22.8165892,29.8739437 36.033841,38.6515062 55.8917547,40.8075063" id="Fill-8"></path>
                <path d="M93.3500993,38.0916812 C91.7320633,42.8153687 84.5169482,41.9591812 80.4102,44.2022437 C80.500164,47.1698062 81.7772144,50.3749312 80.7503079,53.3683062 C79.4693079,53.2878062 79.4227899,51.9766187 79.0480129,50.9922437 C75.9791424,60.1548062 69.5561496,65.9726812 59.2967396,67.9663687 C65.5757899,60.9864937 67.8797468,50.0428687 71.2154374,40.1286812 C73.5255381,38.4333687 77.7705237,41.0373687 81.4314014,40.4681812 C85.7189554,39.8009937 89.0761496,35.1337437 93.3500993,38.0916812" id="Fill-10"></path>
                <path d="M52.4863748,44.5418312 C53.0656554,44.4171437 53.1288496,44.8065187 53.1674683,45.2208312 C50.1394108,50.8234562 33.9787993,59.2536437 30.6922597,48.2763312 C38.7942885,47.8663937 46.9397633,47.4993312 52.4863748,44.5418312" id="Fill-12"></path>
                <path d="M50.7836849,50.3130688 C51.9145986,54.5423813 48.1018791,64.2421938 41.9299079,60.1581313 C43.6045554,55.6037563 48.0812532,53.8428188 50.7836849,50.3130688" id="Fill-14"></path>
                <path d="M85.5179187,66.6084563 C84.3220554,66.6688313 84.3979763,65.4617688 83.4746381,65.2504562 C82.7027029,65.6127063 82.2370842,66.2803313 82.1124511,67.2874563 C80.6550338,64.8925813 79.2309691,62.4648938 74.9614079,62.8743938 C77.8547388,59.7410188 86.3021417,60.9940188 85.5179187,66.6084563" id="Fill-16"></path>
                <path d="M78.3668755,71.0219125 C77.9477748,70.8736 77.6673504,70.587475 77.685782,70.0034125 C76.8313432,70.5096 76.4903576,71.527225 75.9830482,72.3799125 C75.5959835,69.7759125 74.4690194,64.85535 69.5126597,66.9479125 C72.2128971,63.0511 80.750264,65.1471625 78.3668755,71.0219125" id="Fill-18"></path>
                <path d="M70.5344755,104.630794 L69.853382,104.630794 C60.8473245,97.7664187 56.8498496,84.0989187 55.2107489,71.0220437 C57.3268784,76.3774813 59.5083964,81.3846688 62.3617921,86.6381687 C65.3117345,92.0697313 71.5877129,98.4152313 70.5344755,104.630794" id="Fill-20"></path>
                <path d="M57.9349036,72.3796938 C58.4847813,72.2838813 58.5212058,72.7003813 58.9565439,72.7191938 C60.672882,74.3313813 61.733141,76.2183188 63.3836518,77.8116938 C66.970364,81.2745063 73.2652129,82.5060688 73.5996158,89.0143188 C69.0878101,87.8680688 65.6775151,84.4490063 63.043105,81.2062563 C61.1815079,78.9155063 60.0444504,75.8236938 58.2754504,73.3981938 C58.0955223,73.1251938 57.9199827,72.8469438 57.9349036,72.3796938" id="Fill-22"></path>
                <path d="M121.614296,43.18405 C117.489555,40.957175 112.693814,38.3833625 106.631116,37.4129875 C101.402231,36.5756125 95.307936,37.6033 90.6258568,35.37555 C91.3719,34.6213 93.1009647,33.5113625 91.9880439,31.9809875 C88.8770439,28.161175 85.8419647,33.8981125 88.5825763,35.37555 C85.4527058,36.1696125 84.5385835,38.0114875 81.0909863,38.43105 C77.5121734,38.8668 74.0070871,36.74405 70.8750223,38.09155 C67.6350007,39.4858625 66.6238928,48.2306125 65.4267129,52.0106125 C62.9840799,59.7219875 60.421641,65.231425 54.5296554,68.6452375 C52.3196122,56.9919875 52.8523748,45.941175 60.3185115,40.12855 C63.5282525,37.62955 66.6181878,37.1343 69.5128353,35.37555 C75.2450799,31.89305 80.2694612,22.671425 89.9447633,26.209925 C92.6590439,27.202175 94.825641,30.6387375 97.4363532,31.9809875 C99.5318568,33.0581125 102.182943,33.0012375 104.587835,33.67805 C111.342159,35.5803 116.3819,38.67255 121.614296,42.84455 L121.614296,43.18405 Z" id="Fill-24"></path>
            </g>
        </g>
    </g>
</svg>