<?xml version="1.0" encoding="UTF-8" standalone="no"?>
<svg width="517px" height="129px" viewBox="0 0 517 129" version="1.1" xmlns="http://www.w3.org/2000/svg" xmlns:xlink="http://www.w3.org/1999/xlink">
    <!-- Generator: Sketch 43.2 (39069) - http://www.bohemiancoding.com/sketch -->
    <title>Group Copy 6</title>
    <desc>Created with Sketch.</desc>
    <defs>
        <linearGradient x1="101.828749%" y1="100%" x2="0%" y2="0%" id="linearGradient-1">
            <stop stop-color="#0CFEEB" offset="0%"></stop>
            <stop stop-color="#C48181" offset="51.8325275%"></stop>
            <stop stop-color="#FF8F1E" offset="100%"></stop>
        </linearGradient>
    </defs>
    <g id="Page-1" stroke="none" stroke-width="1" fill="none" fill-rule="evenodd">
        <g id="Artboard-Copy" transform="translate(-669.000000, -233.000000)">
            <g id="Group-Copy-6" transform="translate(669.000000, 233.000000)">
                <path d="M138.163851,114.346392 L138.163851,76.5560308 L125.446521,76.5560308 C125.044708,76.5560308 124.703171,76.405353 124.421902,76.103993 C124.140633,75.8026329 124,75.4510515 124,75.0492381 C124,74.6474247 124.140633,74.3058884 124.421902,74.024619 C124.703171,73.7433497 125.044708,73.6027171 125.446521,73.6027171 L153.774224,73.6027171 C154.176037,73.6027171 154.517574,73.7433497 154.798843,74.024619 C155.080112,74.3058884 155.220745,74.6474247 155.220745,75.0492381 C155.220745,75.4510515 155.080112,75.8026329 154.798843,76.103993 C154.517574,76.405353 154.176037,76.5560308 153.774224,76.5560308 L141.056894,76.5560308 L141.056894,114.346392 C141.056894,114.748205 140.916261,115.089742 140.634992,115.371011 C140.353722,115.65228 140.012186,115.792913 139.610372,115.792913 C139.208559,115.792913 138.867023,115.65228 138.585753,115.371011 C138.304484,115.089742 138.163851,114.748205 138.163851,114.346392 Z M166.310739,114.346392 L166.310739,75.0492381 C166.310739,74.6474247 166.451372,74.3058884 166.732641,74.024619 C167.013911,73.7433497 167.355447,73.6027171 167.75726,73.6027171 L189.455075,73.6027171 C189.856889,73.6027171 190.198425,73.7433497 190.479694,74.024619 C190.760964,74.3058884 190.901596,74.6574699 190.901596,75.0793739 C190.901596,75.501278 190.760964,75.8528595 190.479694,76.1341288 C190.198425,76.4153982 189.856889,76.5560308 189.455075,76.5560308 L169.264053,76.5560308 L169.264053,93.2512941 L186.923664,93.2512941 C187.325477,93.2512941 187.667013,93.4019718 187.948283,93.7033319 C188.229552,94.0046919 188.370185,94.3562734 188.370185,94.7580868 C188.370185,95.1599002 188.229552,95.5014364 187.948283,95.7827058 C187.667013,96.0639752 187.325477,96.2046078 186.923664,96.2046078 L169.264053,96.2046078 L169.264053,112.839599 L189.455075,112.839599 C189.856889,112.839599 190.198425,112.980232 190.479694,113.261501 C190.760964,113.542771 190.901596,113.894352 190.901596,114.316256 C190.901596,114.73816 190.760964,115.089742 190.479694,115.371011 C190.198425,115.65228 189.856889,115.792913 189.455075,115.792913 L167.636717,115.792913 C167.275085,115.752732 166.963684,115.602054 166.702505,115.340875 C166.441327,115.079697 166.310739,114.748205 166.310739,114.346392 Z M206.602376,109.554791 C202.323064,105.396023 200.18344,100.35334 200.18344,94.4265924 C200.18344,88.4998447 202.323064,83.4571622 206.602376,79.2983935 C210.881689,75.1396249 216.054959,73.0401813 222.122341,73 C227.18519,73 231.725614,74.5469584 235.743748,77.6409216 C236.065198,77.9221909 236.256057,78.2737724 236.316329,78.6956765 C236.376601,79.1175805 236.266104,79.469162 235.984834,79.7504314 C235.743746,80.1120634 235.412255,80.3129671 234.990351,80.3531484 C234.568447,80.3933298 234.216866,80.2928779 233.935596,80.0517899 C230.43982,77.3194588 226.502107,75.9533137 222.122341,75.9533137 C216.858586,75.9533137 212.378434,77.7614469 208.68175,81.3777675 C204.985067,84.9940881 203.136753,89.3536981 203.136753,94.4567282 C203.136753,99.5597584 204.985067,103.899278 208.68175,107.475417 C212.378434,111.051557 216.687818,112.839599 221.610032,112.839599 C226.532246,112.839599 230.600546,111.473454 233.815053,108.741123 C234.176685,108.500035 234.568447,108.409628 234.990351,108.4699 C235.412255,108.530172 235.723656,108.741121 235.924563,109.102753 C236.205832,109.384023 236.326374,109.745649 236.286193,110.187644 C236.246012,110.629639 236.065198,110.971175 235.743748,111.212263 C231.765795,114.266045 227.225372,115.792913 222.122341,115.792913 C216.054959,115.792913 210.881689,113.71356 206.602376,109.554791 Z M273.172478,114.346392 L273.172478,96.1443361 L251.474663,96.1443361 L251.474663,114.346392 C251.474663,114.748205 251.323986,115.089742 251.022626,115.371011 C250.721266,115.65228 250.369684,115.792913 249.967871,115.792913 C249.566057,115.792913 249.224521,115.65228 248.943252,115.371011 C248.661982,115.089742 248.52135,114.748205 248.52135,114.346392 L248.52135,75.0492381 C248.52135,74.6474247 248.661982,74.3058884 248.943252,74.024619 C249.224521,73.7433497 249.566057,73.6027171 249.967871,73.6027171 C250.369684,73.6027171 250.721266,73.7433497 251.022626,74.024619 C251.323986,74.3058884 251.474663,74.6474247 251.474663,75.0492381 L251.474663,93.2512941 L273.172478,93.2512941 L273.172478,75.0492381 C273.172478,74.6474247 273.313111,74.3058884 273.59438,74.024619 C273.87565,73.7433497 274.217186,73.6027171 274.619,73.6027171 C275.020813,73.6027171 275.372394,73.7433497 275.673754,74.024619 C275.975114,74.3058884 276.125792,74.6474247 276.125792,75.0492381 L276.125792,114.346392 C276.125792,114.748205 275.975114,115.089742 275.673754,115.371011 C275.372394,115.65228 275.020813,115.792913 274.619,115.792913 C274.217186,115.792913 273.87565,115.65228 273.59438,115.371011 C273.313111,115.089742 273.172478,114.748205 273.172478,114.346392 Z M290.108829,96.0237926 C289.345383,96.0237926 288.963666,95.6420756 288.963666,94.8786302 C288.963666,94.1151847 289.345383,93.7334677 290.108829,93.7334677 L302.946702,93.7334677 C303.710148,93.7334677 304.091865,94.0950944 304.091865,94.8183585 C304.091865,95.1799905 303.981368,95.4713009 303.760371,95.6922982 C303.539373,95.9132956 303.268153,96.0237926 302.946702,96.0237926 L290.108829,96.0237926 Z M348.391571,114.346392 L348.391571,79.6298879 L334.890708,98.3743893 C334.609439,98.816384 334.207631,99.0373781 333.685274,99.0373781 L333.56473,99.0373781 C333.002192,99.0373781 332.580294,98.816384 332.299025,98.3743893 L318.798162,79.6901596 L318.798162,114.346392 C318.798162,114.748205 318.657529,115.089742 318.37626,115.371011 C318.09499,115.65228 317.753454,115.792913 317.351641,115.792913 C316.949827,115.792913 316.598246,115.65228 316.296886,115.371011 C315.995526,115.089742 315.844848,114.748205 315.844848,114.346392 L315.844848,75.2903249 C315.844848,74.8081488 316.045752,74.4264318 316.447565,74.1451625 L316.568109,74.024619 C317.371735,73.5022616 318.054808,73.6228038 318.617347,74.3862493 L333.625002,95.1799887 L348.572386,74.3862493 C348.773293,74.0647986 349.084693,73.8739401 349.506597,73.8136681 C349.928501,73.7533961 350.300173,73.8237123 350.621624,74.024619 C351.063619,74.4666138 351.284613,74.8885115 351.284613,75.2903249 L351.284613,114.346392 C351.284613,114.748205 351.14398,115.089742 350.862711,115.371011 C350.581441,115.65228 350.239905,115.792913 349.838092,115.792913 C349.436278,115.792913 349.094742,115.65228 348.813473,115.371011 C348.532203,115.089742 348.391571,114.748205 348.391571,114.346392 Z M366.71417,114.346392 L366.71417,75.0492381 C366.71417,74.6474247 366.854803,74.3058884 367.136072,74.024619 C367.417341,73.7433497 367.758878,73.6027171 368.160691,73.6027171 L389.858506,73.6027171 C390.26032,73.6027171 390.601856,73.7433497 390.883125,74.024619 C391.164395,74.3058884 391.305027,74.6574699 391.305027,75.0793739 C391.305027,75.501278 391.164395,75.8528595 390.883125,76.1341288 C390.601856,76.4153982 390.26032,76.5560308 389.858506,76.5560308 L369.667484,76.5560308 L369.667484,93.2512941 L387.327094,93.2512941 C387.728908,93.2512941 388.070444,93.4019718 388.351713,93.7033319 C388.632983,94.0046919 388.773615,94.3562734 388.773615,94.7580868 C388.773615,95.1599002 388.632983,95.5014364 388.351713,95.7827058 C388.070444,96.0639752 387.728908,96.2046078 387.327094,96.2046078 L369.667484,96.2046078 L369.667484,112.839599 L389.858506,112.839599 C390.26032,112.839599 390.601856,112.980232 390.883125,113.261501 C391.164395,113.542771 391.305027,113.894352 391.305027,114.316256 C391.305027,114.73816 391.164395,115.089742 390.883125,115.371011 C390.601856,115.65228 390.26032,115.792913 389.858506,115.792913 L368.040148,115.792913 C367.678516,115.752732 367.367115,115.602054 367.105936,115.340875 C366.844757,115.079697 366.71417,114.748205 366.71417,114.346392 Z M401.370402,115.491554 C400.566776,114.888834 400.486414,114.205762 401.129316,113.442316 L414.69045,94.8183585 L401.129316,76.1944005 C400.848046,75.8729498 400.737549,75.501278 400.797821,75.0793739 C400.858093,74.6574699 401.048952,74.3460692 401.370402,74.1451625 C401.691853,73.8638931 402.063525,73.7533961 402.485429,73.8136681 C402.907333,73.8739401 403.218734,74.0647986 403.419641,74.3862493 L416.498601,92.3472184 L429.577562,74.3862493 C430.220463,73.6228038 430.903536,73.5424424 431.6268,74.1451625 C431.948251,74.3460692 432.149155,74.6574699 432.229517,75.0793739 C432.30988,75.501278 432.209428,75.8729498 431.928159,76.1944005 L418.306753,94.8183585 L431.928159,113.442316 C432.209428,113.763767 432.30988,114.125394 432.229517,114.527207 C432.149155,114.929021 431.948251,115.240421 431.6268,115.461419 C431.305349,115.682416 430.963813,115.792913 430.602181,115.792913 C430.240549,115.792913 429.899013,115.571919 429.577562,115.129924 L416.498601,97.2292268 L403.419641,115.129924 C403.178552,115.571919 402.857107,115.792913 402.455293,115.792913 C402.05348,115.792913 401.691853,115.692461 401.370402,115.491554 Z M444.645489,112.779328 C444.645489,111.935519 444.936799,111.222311 445.519429,110.639682 C446.102058,110.057053 446.815266,109.765742 447.659075,109.765742 C448.502883,109.765742 449.216091,110.057053 449.79872,110.639682 C450.38135,111.222311 450.67266,111.935519 450.67266,112.779328 C450.67266,113.623136 450.38135,114.336344 449.79872,114.918973 C449.216091,115.501603 448.502883,115.792913 447.659075,115.792913 C446.815266,115.792913 446.102058,115.501603 445.519429,114.918973 C444.936799,114.336344 444.645489,113.623136 444.645489,112.779328 Z M460.255862,114.346392 L460.255862,75.0492381 C460.255862,74.6474247 460.396494,74.3058884 460.677764,74.024619 C460.959033,73.7433497 461.300569,73.6027171 461.702383,73.6027171 C462.104196,73.6027171 462.455777,73.7433497 462.757138,74.024619 C463.058498,74.3058884 463.209175,74.6474247 463.209175,75.0492381 L463.209175,114.346392 C463.209175,114.748205 463.058498,115.089742 462.757138,115.371011 C462.455777,115.65228 462.104196,115.792913 461.702383,115.792913 C461.300569,115.792913 460.959033,115.65228 460.677764,115.371011 C460.396494,115.089742 460.255862,114.748205 460.255862,114.346392 Z M476.348408,94.3964565 C476.388589,88.4496182 478.377536,83.3968905 482.315307,79.2381218 C486.253078,75.0793531 491.044631,73 496.690109,73 C502.335588,73 507.10705,75.0793531 511.00464,79.2381218 C514.90223,83.3968905 516.871086,88.4496182 516.911268,94.3964565 C516.871086,100.343295 514.90223,105.396023 511.00464,109.554791 C507.10705,113.71356 502.335588,115.792913 496.690109,115.792913 C491.044631,115.792913 486.253078,113.71356 482.315307,109.554791 C478.377536,105.396023 476.388589,100.343295 476.348408,94.3964565 Z M484.394681,81.3174958 C480.999358,84.8534537 479.301722,89.2030185 479.301722,94.3663207 C479.301722,99.5296228 480.999358,103.899278 484.394681,107.475417 C487.790004,111.051557 491.858304,112.839599 496.599702,112.839599 C501.3411,112.839599 505.399354,111.041511 508.774587,107.445281 C512.14982,103.849051 513.857501,99.4994867 513.897682,94.3964565 C513.857501,89.2130637 512.159865,84.8534537 508.804723,81.3174958 C505.449581,77.7815379 501.391326,76.0135854 496.629838,76.0135854 C491.868349,76.0135854 487.790004,77.7815379 484.394681,81.3174958 Z" id="TECH-MEX.IO-Copy-17" fill="url(#linearGradient-1)"></path>
                <g id="Group-2" fill="#000000">
                    <path d="M0.886121223,11.76351 C0.886121223,11.76351 -0.41253705,8.4992725 0.886121223,5.92411 C3.76214281,1.7439725 8.62393777,7.750535 12.1152543,10.09511 C32.2377579,23.608935 52.7992219,37.8080725 75.3314522,46.3811975 C58.3422363,48.359735 45.3159917,41.3770725 32.0780385,34.702935 C20.8017399,29.0177975 6.13863921,22.2431475 0.886121223,11.76351" id="Fill-6"></path>
                    <path d="M25.839923,0.50224 C26.0607432,-0.6281225 27.5035777,0.50224 27.5035777,0.50224 C44.6771676,15.39529 61.5827719,30.5565525 81.1537612,43.0448275 C75.7136532,44.32999 70.3603727,40.94159 65.3495777,38.4567275 C60.7348655,36.1680525 56.0515489,33.7245775 51.6254986,30.949465 C40.0924698,23.7184775 25.2380273,16.3128025 25.839923,0.50224" id="Fill-3"></path>
                    <path d="M68.2612414,50.1349363 C62.2508601,52.7315988 54.5296586,54.4037613 44.5552342,53.4717363 C35.3188421,52.6090488 21.5818996,46.0692863 15.4428853,40.9592738 C12.0603709,38.1438488 7.55178094,32.7048863 9.20364424,28.4468112 C27.8661622,36.7022737 44.0085435,47.4861363 68.2612414,50.1349363" id="Fill-8"></path>
                    <path d="M114.009547,46.7983512 C112.033422,52.6017387 103.221519,51.5498512 98.2059,54.3056137 C98.3157741,57.9514762 99.8754504,61.8892012 98.6212777,65.5667762 C97.0567777,65.4678762 96.9999647,63.8569887 96.5422453,62.6476137 C92.7941986,73.9044762 84.9497237,81.0521513 72.4197885,83.5015387 C80.0884647,74.9262637 82.9023137,61.4812387 86.9762309,49.3009512 C89.7975835,47.2181387 94.9820331,50.4173387 99.453105,49.7180512 C104.689544,48.8983637 108.789724,43.1643137 114.009547,46.7983512" id="Fill-10"></path>
                    <path d="M64.1022119,54.7228212 C64.8096939,54.5696337 64.8868737,55.0480087 64.9340392,55.5570212 C61.2358378,62.4402462 41.4986975,72.7973337 37.484809,59.3109212 C47.3799097,58.8072837 57.3280716,58.3563212 64.1022119,54.7228212" id="Fill-12"></path>
                    <path d="M62.0226971,61.8131988 C63.403895,67.0092113 58.747377,78.9261238 51.2094777,73.9085613 C53.2547439,68.3131863 58.7221863,66.1497488 62.0226971,61.8131988" id="Fill-14"></path>
                    <path d="M104.444015,81.8332463 C102.983494,81.9074213 103.076217,80.4244588 101.948533,80.1648463 C101.00576,80.6098963 100.437095,81.4301213 100.284879,82.6674463 C98.5049183,79.7251713 96.7656917,76.7425838 91.5512277,77.2456838 C95.084886,73.3961088 105.401796,74.9355088 104.444015,81.8332463" id="Fill-16"></path>
                    <path d="M95.7103644,87.2554925 C95.1985119,87.07328 94.8560263,86.721755 94.8785371,86.0041925 C93.8350011,86.62608 93.4185514,87.876305 92.7989687,88.9238925 C92.3262421,85.7246925 90.949868,79.67943 84.896609,82.2502925 C88.1944399,77.46278 98.6212241,80.0379425 95.7103644,87.2554925" id="Fill-18"></path>
                    <path d="M86.1445644,128.546404 L85.3127371,128.546404 C74.3135356,120.113029 69.4313737,103.321529 67.4295212,87.2556537 C70.0139745,93.8351912 72.6782874,99.9868787 76.1631723,106.441179 C79.7659709,113.114241 87.4308953,120.910141 86.1445644,128.546404" id="Fill-20"></path>
                    <path d="M70.7565626,88.9236238 C71.4281345,88.8059113 71.4726201,89.3176113 72.0043036,89.3407238 C74.1004871,91.3214113 75.3953935,93.6396488 77.4111813,95.5972238 C81.7916741,99.8515363 89.4796453,101.364599 89.8880554,109.360449 C84.3777353,107.952199 80.2127029,103.751636 76.9952676,99.7676863 C74.7216777,96.9533363 73.3329763,93.1548238 71.1724763,90.1749238 C70.9527281,89.8395238 70.7383396,89.4976738 70.7565626,88.9236238" id="Fill-22"></path>
                    <path d="M148.528935,53.05469 C143.491341,50.318815 137.634248,47.1567025 130.229805,45.9645275 C123.843708,44.9357525 116.400676,46.19834 110.682399,43.46139 C111.59355,42.53474 113.705277,41.1711025 112.346054,39.2909275 C108.546554,34.598015 104.839777,41.6462525 108.186917,43.46139 C104.36437,44.4369525 103.247942,46.6998275 99.0373522,47.21529 C94.6665068,47.75064 90.3857047,45.14269 86.5604781,46.79819 C82.6034025,48.5112025 81.3685248,59.2547525 79.9063953,63.8987525 C76.9231795,73.3727275 73.7936435,80.141465 66.5976939,84.3355775 C63.8985428,70.0187275 64.5492119,56.442015 73.6676903,49.30079 C77.5877838,46.23059 81.3615572,45.62214 84.8968234,43.46139 C91.8976795,39.18289 98.034014,27.853465 109.850572,32.200765 C113.165554,33.419815 115.811644,37.6418775 119.000136,39.2909275 C121.559399,40.6142525 124.797201,40.5443775 127.734323,41.37589 C135.983456,43.71294 142.13855,47.51199 148.528935,52.63759 L148.528935,53.05469 Z" id="Fill-24"></path>
                </g>
            </g>
        </g>
    </g>
</svg>