<svg width="517" height="129" viewBox="0 0 517 129" xmlns="http://www.w3.org/2000/svg"><title>Group Copy 10</title><desc>Created with Sketch.</desc><defs><linearGradient x1="101.829%" y1="100%" x2="0%" y2="0%" id="a"><stop stop-color="#0CFEEB" offset="0%"/><stop stop-color="#C48181" offset="51.833%"/><stop stop-color="#FF8F1E" offset="100%"/></linearGradient></defs><g fill="none"><path d="M138.164 114.346v-37.79h-12.717c-.402 0-.743-.151-1.025-.452-.281-.301-.422-.653-.422-1.055 0-.402.141-.743.422-1.025.281-.281.623-.422 1.025-.422h28.328c.402 0 .743.141 1.025.422.281.281.422.623.422 1.025 0 .402-.141.753-.422 1.055-.281.301-.623.452-1.025.452h-12.717v37.79c0 .402-.141.743-.422 1.025-.281.281-.623.422-1.025.422-.402 0-.743-.141-1.025-.422-.281-.281-.422-.623-.422-1.025zm28.147 0v-39.297c0-.402.141-.743.422-1.025.281-.281.623-.422 1.025-.422h21.698c.402 0 .743.141 1.025.422.281.281.422.633.422 1.055 0 .422-.141.773-.422 1.055-.281.281-.623.422-1.025.422h-20.191v16.695h17.66c.402 0 .743.151 1.025.452.281.301.422.653.422 1.055 0 .402-.141.743-.422 1.025-.281.281-.623.422-1.025.422h-17.66v16.635h20.191c.402 0 .743.141 1.025.422.281.281.422.633.422 1.055 0 .422-.141.773-.422 1.055-.281.281-.623.422-1.025.422h-21.818c-.362-.04-.673-.191-.934-.452s-.392-.593-.392-.994zm40.292-4.792c-4.279-4.159-6.419-9.201-6.419-15.128s2.14-10.969 6.419-15.128c4.279-4.159 9.453-6.258 15.52-6.298 5.063 0 9.603 1.547 13.621 4.641.321.281.512.633.573 1.055.06.422-.05.773-.331 1.055-.241.362-.573.563-.994.603-.422.04-.773-.06-1.055-.301-3.496-2.732-7.433-4.098-11.813-4.098-5.264 0-9.744 1.808-13.441 5.424-3.697 3.616-5.545 7.976-5.545 13.079 0 5.103 1.848 9.443 5.545 13.019 3.697 3.576 8.006 5.364 12.928 5.364 4.922 0 8.991-1.366 12.205-4.098.362-.241.753-.331 1.175-.271.422.06.733.271.934.633.281.281.402.643.362 1.085-.04.442-.221.784-.542 1.025-3.978 3.054-8.518 4.581-13.621 4.581-6.067 0-11.241-2.079-15.52-6.238zm66.57 4.792v-18.202h-21.698v18.202c0 .402-.151.743-.452 1.025-.301.281-.653.422-1.055.422-.402 0-.743-.141-1.025-.422-.281-.281-.422-.623-.422-1.025v-39.297c0-.402.141-.743.422-1.025.281-.281.623-.422 1.025-.422.402 0 .753.141 1.055.422.301.281.452.623.452 1.025v18.202h21.698v-18.202c0-.402.141-.743.422-1.025.281-.281.623-.422 1.025-.422.402 0 .753.141 1.055.422.301.281.452.623.452 1.025v39.297c0 .402-.151.743-.452 1.025-.301.281-.653.422-1.055.422-.402 0-.743-.141-1.025-.422-.281-.281-.422-.623-.422-1.025zm16.936-18.323c-.763 0-1.145-.382-1.145-1.145s.382-1.145 1.145-1.145h12.838c.763 0 1.145.362 1.145 1.085 0 .362-.11.653-.331.874-.221.221-.492.331-.814.331h-12.838zm58.283 18.323v-34.717l-13.501 18.745c-.281.442-.683.663-1.205.663h-.121c-.563 0-.984-.221-1.266-.663l-13.501-18.684v34.656c0 .402-.141.743-.422 1.025-.281.281-.623.422-1.025.422-.402 0-.753-.141-1.055-.422-.301-.281-.452-.623-.452-1.025v-39.056c0-.482.201-.864.603-1.145l.121-.121c.804-.522 1.487-.402 2.049.362l15.008 20.794 14.947-20.794c.201-.321.512-.512.934-.573.422-.06.794.01 1.115.211.442.442.663.864.663 1.266v39.056c0 .402-.141.743-.422 1.025-.281.281-.623.422-1.025.422-.402 0-.743-.141-1.025-.422-.281-.281-.422-.623-.422-1.025zm18.323 0v-39.297c0-.402.141-.743.422-1.025.281-.281.623-.422 1.025-.422h21.698c.402 0 .743.141 1.025.422.281.281.422.633.422 1.055 0 .422-.141.773-.422 1.055-.281.281-.623.422-1.025.422h-20.191v16.695h17.66c.402 0 .743.151 1.025.452.281.301.422.653.422 1.055 0 .402-.141.743-.422 1.025-.281.281-.623.422-1.025.422h-17.66v16.635h20.191c.402 0 .743.141 1.025.422.281.281.422.633.422 1.055 0 .422-.141.773-.422 1.055-.281.281-.623.422-1.025.422h-21.818c-.362-.04-.673-.191-.934-.452s-.392-.593-.392-.994zm34.656 1.145c-.804-.603-.884-1.286-.241-2.049l13.561-18.624-13.561-18.624c-.281-.321-.392-.693-.331-1.115.06-.422.251-.733.573-.934.321-.281.693-.392 1.115-.331.422.06.733.251.934.573l13.079 17.961 13.079-17.961c.643-.763 1.326-.844 2.049-.241.321.201.522.512.603.934.08.422-.02.794-.301 1.115l-13.621 18.624 13.621 18.624c.281.321.382.683.301 1.085-.08.402-.281.713-.603.934-.321.221-.663.331-1.025.331-.362 0-.703-.221-1.025-.663l-13.079-17.901-13.079 17.901c-.241.442-.563.663-.964.663-.402 0-.763-.1-1.085-.301zm43.275-2.712c0-.844.291-1.557.874-2.14.583-.583 1.296-.874 2.14-.874.844 0 1.557.291 2.14.874.583.583.874 1.296.874 2.14 0 .844-.291 1.557-.874 2.14-.583.583-1.296.874-2.14.874-.844 0-1.557-.291-2.14-.874-.583-.583-.874-1.296-.874-2.14zm15.61 1.567v-39.297c0-.402.141-.743.422-1.025.281-.281.623-.422 1.025-.422.402 0 .753.141 1.055.422.301.281.452.623.452 1.025v39.297c0 .402-.151.743-.452 1.025-.301.281-.653.422-1.055.422-.402 0-.743-.141-1.025-.422-.281-.281-.422-.623-.422-1.025zm16.093-19.95c.04-5.947 2.029-11 5.967-15.158 3.938-4.159 8.729-6.238 14.375-6.238 5.645 0 10.417 2.079 14.315 6.238 3.898 4.159 5.866 9.211 5.907 15.158-.04 5.947-2.009 11-5.907 15.158-3.898 4.159-8.669 6.238-14.315 6.238-5.645 0-10.437-2.079-14.375-6.238-3.938-4.159-5.927-9.211-5.967-15.158zm8.046-13.079c-3.395 3.536-5.093 7.886-5.093 13.049 0 5.163 1.698 9.533 5.093 13.109 3.395 3.576 7.464 5.364 12.205 5.364s8.8-1.798 12.175-5.394 5.083-7.946 5.123-13.049c-.04-5.183-1.738-9.543-5.093-13.079-3.355-3.536-7.413-5.304-12.175-5.304-4.761 0-8.84 1.768-12.235 5.304z" fill="url(#a)"/><g fill="#fff"><path d="M.886 11.764s-1.299-3.264 0-5.839c2.876-4.18 7.738 1.826 11.229 4.171 20.123 13.514 40.684 27.713 63.216 36.286-16.989 1.979-30.015-5.004-43.253-11.678-11.276-5.685-25.939-12.46-31.192-22.939"/><path d="M25.84.502c.221-1.13 1.664 0 1.664 0 17.174 14.893 34.079 30.054 53.65 42.543-5.44 1.285-10.793-2.103-15.804-4.588-4.615-2.289-9.298-4.732-13.724-7.507-11.533-7.231-26.387-14.637-25.786-30.447"/><path d="M68.261 50.135c-6.01 2.597-13.732 4.269-23.706 3.337-9.236-.863-22.973-7.402-29.112-12.512-3.383-2.815-7.891-8.254-6.239-12.512 18.663 8.255 34.805 19.039 59.058 21.688"/><path d="M114.01 46.798c-1.976 5.803-10.788 4.752-15.804 7.507.11 3.646 1.67 7.584.415 11.261-1.564-.099-1.621-1.71-2.079-2.919-3.748 11.257-11.593 18.405-24.122 20.854 7.669-8.575 10.483-22.02 14.556-34.201 2.821-2.083 8.006 1.116 12.477.417 5.236-.82 9.337-6.554 14.556-2.92"/><path d="M64.102 54.723c.707-.153.785.325.832.834-3.698 6.883-23.435 17.24-27.449 3.754 9.895-.504 19.843-.955 26.617-4.588"/><path d="M62.023 61.813c1.381 5.196-3.275 17.113-10.813 12.095 2.045-5.595 7.513-7.759 10.813-12.095"/><path d="M104.444 81.833c-1.461.074-1.368-1.409-2.495-1.668-.943.445-1.511 1.265-1.664 2.503-1.78-2.942-3.519-5.925-8.734-5.422 3.534-3.85 13.851-2.31 12.893 4.588"/><path d="M95.71 87.255c-.512-.182-.854-.534-.832-1.251-1.044.622-1.46 1.872-2.08 2.92-.473-3.199-1.849-9.244-7.902-6.674 3.298-4.788 13.725-2.212 10.814 5.005"/><path d="M86.145 128.546h-.832c-10.999-8.433-15.881-25.225-17.883-41.291 2.584 6.58 5.249 12.731 8.734 19.186 3.603 6.673 11.268 14.469 9.981 22.105"/><path d="M70.757 88.924c.672-.118.716.394 1.248.417 2.096 1.981 3.391 4.299 5.407 6.256 4.38 4.254 12.068 5.767 12.477 13.763-5.51-1.408-9.675-5.609-12.893-9.593-2.274-2.814-3.662-6.613-5.823-9.593-.22-.335-.434-.677-.416-1.251"/><path d="M148.529 53.055c-5.038-2.736-10.895-5.898-18.299-7.09-6.386-1.029-13.829.234-19.547-2.503.911-.927 3.023-2.29 1.664-4.17-3.799-4.693-7.506 2.355-4.159 4.17-3.823.976-4.939 3.238-9.15 3.754-4.371.535-8.652-2.073-12.477-.417-3.957 1.713-5.192 12.457-6.654 17.101-2.983 9.474-6.113 16.243-13.309 20.437-2.699-14.317-2.048-27.894 7.07-35.035 3.92-3.07 7.694-3.679 11.229-5.839 7.001-4.279 13.137-15.608 24.954-11.261 3.315 1.219 5.961 5.441 9.15 7.09 2.559 1.323 5.797 1.253 8.734 2.085 8.249 2.337 14.404 6.136 20.795 11.262v.417z"/></g></g></svg>